<svg width="1859" height="1859" viewBox="0 0 1859 1859" fill="none" xmlns="http://www.w3.org/2000/svg">
<rect width="1859" height="1859" rx="300" fill="url(#paint0_linear_420_16)"/>
<path d="M282.169 582.515C286.82 582.515 290.59 586.285 290.59 590.937V751.384C290.59 760.094 302.552 763.266 307.162 755.877C343.59 697.489 386.577 652.325 436.125 620.385C493.404 583.462 558.72 565 632.072 565C681.169 565 725.881 570.838 766.21 582.515C806.832 593.876 842.048 610.918 871.855 633.64C900.496 655.415 922.559 681.293 938.047 711.273C953.83 741.254 961.719 772.812 961.719 805.948C961.719 825.2 958.943 844.293 953.39 863.227C947.838 882.163 939.509 900.309 928.403 917.665C917.591 934.706 904.002 950.645 887.636 965.478C871.272 979.995 852.275 992.617 830.65 1003.35C809.024 1014.08 784.769 1022.6 757.882 1028.91C731.287 1034.91 702.063 1037.9 670.211 1037.9C621.759 1037.9 576.791 1031.93 535.307 1019.98C527.558 1017.75 520.935 1026.4 525.618 1032.97C535.894 1047.38 546.977 1061.65 558.867 1075.77C576.4 1096.29 595.835 1114.59 617.169 1130.69C638.794 1146.78 662.174 1159.88 687.306 1169.97C712.73 1179.76 740.055 1184.65 769.279 1184.65C778.922 1184.65 789.297 1183.39 800.402 1180.86C811.8 1178.34 823.344 1174.87 835.033 1170.45C847.016 1165.72 858.85 1160.03 870.541 1153.41C879.838 1148.26 888.783 1142.74 897.376 1136.84C901.396 1134.08 906.939 1135.13 909.539 1139.26L957.573 1215.47C959.914 1219.18 959.014 1224.08 955.445 1226.64C942.191 1236.15 928.501 1244.72 914.377 1252.34C898.011 1261.18 881.499 1268.75 864.842 1275.07C848.476 1281.06 832.111 1285.64 815.745 1288.79C799.672 1292.26 784.183 1294 769.279 1294C733.041 1294 699.142 1288.63 667.58 1277.9C636.309 1267.49 607.378 1253.45 580.785 1235.78C554.191 1218.1 529.935 1197.91 508.018 1175.18C486.098 1152.46 466.227 1128.95 448.399 1104.65C430.866 1080.03 415.376 1055.58 401.933 1031.28C388.49 1006.98 377.093 984.571 367.741 964.056C367.611 963.776 367.467 963.449 367.309 963.076C365.895 959.743 367.012 955.899 369.831 953.628L467.075 875.3C470.026 872.923 474.195 872.821 477.322 874.962C529.047 910.374 593.344 928.079 670.211 928.079C701.48 928.079 728.804 924.608 752.184 917.665C775.854 910.724 795.727 901.572 811.8 890.21C827.874 878.533 839.855 865.437 847.745 850.92C855.929 836.088 860.019 821.097 860.019 805.948C860.019 790.801 855.929 776.125 847.745 761.925C839.855 747.408 828.312 734.311 813.115 722.635C805.809 717.27 796.75 711.747 785.938 706.066C775.416 700.386 762.703 695.179 747.799 690.445C733.187 685.711 716.237 681.924 696.95 679.084C677.955 675.928 656.328 674.35 632.072 674.35C566.026 674.35 509.039 694.39 461.111 734.469C413.185 774.233 374.025 834.193 343.632 914.351C333.988 939.598 325.951 964.688 319.522 989.619C313.093 1014.55 307.832 1037.9 303.741 1059.68C299.942 1081.45 297.019 1101.02 294.974 1118.38C292.928 1135.42 291.467 1148.83 290.59 1158.61V1268.54C290.59 1273.19 286.82 1276.96 282.169 1276.96H189.422C184.77 1276.96 181 1273.19 181 1268.54V590.937C181 586.285 184.77 582.515 189.422 582.515H282.169ZM1665.09 1127.95C1667.98 1130.89 1668.32 1135.5 1665.83 1138.79C1645.95 1165.07 1624.29 1187.77 1600.85 1206.9C1576.01 1227.1 1550.29 1243.66 1523.7 1256.6C1497.1 1269.54 1470.22 1279.01 1443.04 1285.01C1415.86 1291 1389.56 1294 1364.13 1294C1320.88 1294 1282.31 1288 1248.41 1276.01C1214.51 1264.02 1184.7 1248.71 1158.98 1230.09C1133.26 1211.47 1111.35 1190.96 1093.23 1168.56C1075.11 1146.15 1060.2 1124.53 1048.51 1103.7C1036.82 1082.56 1027.91 1063.78 1021.77 1047.37C1017.29 1035.37 1014.05 1025.99 1012.06 1019.22C1010.97 1015.49 1007.63 1012.76 1003.75 1012.69C991.527 1012.46 982.924 1012.34 977.938 1012.34C976.386 1012.26 974.979 1012.17 973.716 1012.09C969.574 1011.82 966.615 1008.33 966.715 1004.18L969.129 903.325C969.152 902.35 969.949 901.572 970.925 901.572V901.572C972.094 901.572 973.848 901.729 976.186 902.045C978.816 902.045 982.323 902.202 986.706 902.518C989.034 902.518 993.392 902.518 997.181 902.518C1001.27 902.518 1004.76 899.595 1005.52 895.582C1008.49 879.896 1016.18 841.408 1023.97 820.149C1033.9 793.01 1046.91 767.133 1062.98 742.516C1079.35 717.901 1098.49 695.021 1120.41 673.877C1142.32 652.732 1166.58 634.271 1193.17 618.492C1219.77 602.712 1248.55 590.247 1279.53 581.095C1310.51 571.627 1343.24 566.42 1377.72 565.473C1381.52 565.473 1385.32 565.473 1389.12 565.473C1413.96 565.473 1438.51 568.471 1462.77 574.468C1487.02 580.148 1510.25 588.827 1532.46 600.503C1554.67 611.864 1574.69 625.435 1592.52 641.214C1610.64 656.677 1625.98 673.403 1638.55 691.392C1651.11 709.38 1660.76 728.157 1667.48 747.723C1674.49 766.974 1678 785.909 1678 804.529C1678 835.141 1673.47 861.492 1664.41 883.582C1655.35 905.359 1643.52 923.662 1628.9 938.495C1614.58 953.326 1598.36 965.162 1580.24 973.997C1562.13 982.833 1543.86 989.777 1525.45 994.826C1507.33 999.561 1490.09 1002.72 1473.72 1004.29C1457.36 1005.87 1443.62 1006.98 1432.52 1007.61L1421.12 1008.08C1403.29 1008.71 1382.69 1009.5 1359.31 1010.45C1336.23 1011.08 1311.82 1011.87 1286.11 1012.82C1260.39 1013.45 1237.45 1013.92 1217.28 1014.23C1197.41 1014.23 1181.05 1014.23 1168.19 1014.23C1159.44 1014.23 1150.76 1014.23 1142.15 1014.23C1136.28 1014.23 1132.22 1020.08 1134.55 1025.47C1143.54 1046.31 1155.48 1065.45 1170.38 1082.87C1188.2 1103.39 1208.22 1121.06 1230.43 1135.89C1252.94 1150.41 1276.75 1161.61 1301.89 1169.5C1327.02 1177.39 1351.86 1181.34 1376.41 1181.34C1395.4 1181.34 1414.4 1178.97 1433.39 1174.24C1452.68 1169.5 1471.68 1162.24 1490.38 1152.46C1509.08 1142.36 1527.2 1129.42 1544.74 1113.64C1560.1 1099.55 1574.78 1083.15 1588.79 1064.46C1591.93 1060.27 1598.07 1059.78 1601.74 1063.52L1665.09 1127.95ZM1532.03 739.203C1510.98 717.112 1487.75 701.017 1462.33 690.918C1437.19 680.82 1410.89 675.77 1383.42 675.77C1353.91 675.77 1324.54 681.293 1295.31 692.338C1266.38 703.384 1239.79 719.005 1215.53 739.203C1191.57 759.084 1170.96 783.069 1153.72 811.156C1138.38 836.29 1127.59 864.007 1121.35 894.309C1120.31 899.358 1124.17 904.026 1129.33 904.105C1142.72 904.309 1156.11 904.41 1169.5 904.41C1177.98 904.41 1190.54 904.41 1207.2 904.41C1224.15 904.096 1244.61 903.78 1268.57 903.464C1292.83 902.834 1315.77 902.202 1337.39 901.572C1359.02 900.624 1378.6 899.52 1396.13 898.258L1402.71 897.785C1432.23 895.575 1457.07 892.261 1477.23 887.844C1497.4 883.425 1513.61 877.587 1525.89 870.327C1538.16 862.754 1546.93 853.602 1552.19 842.872C1557.74 831.828 1560.52 819.046 1560.52 804.529C1560.52 781.176 1551.02 759.4 1532.03 739.203Z" fill="url(#paint1_linear_420_16)"/>
<defs>
<linearGradient id="paint0_linear_420_16" x1="1859" y1="1859" x2="0" y2="0" gradientUnits="userSpaceOnUse">
<stop stop-color="#B69FB4"/>
<stop offset="1" stop-color="#C25AFF"/>
</linearGradient>
<linearGradient id="paint1_linear_420_16" x1="930.009" y1="565" x2="930.009" y2="1294" gradientUnits="userSpaceOnUse">
<stop/>
<stop offset="1" stop-color="#3B2C52"/>
</linearGradient>
</defs>
</svg>
