<svg width="1859" height="1859" viewBox="0 0 1859 1859" fill="none" xmlns="http://www.w3.org/2000/svg">
<rect width="1859" height="1859" fill="url(#paint0_linear_420_16)"/>
<path d="M371.177 447.836C375.187 447.836 378.437 451.086 378.437 455.096V593.482C378.437 600.991 388.75 603.726 392.724 597.355C424.135 546.996 461.203 508.044 503.929 480.497C553.319 448.652 609.639 432.73 672.889 432.73C715.224 432.73 753.779 437.766 788.553 447.836C823.581 457.634 853.946 472.331 879.649 491.928C904.345 510.708 923.369 533.026 936.724 558.882C950.333 584.738 957.136 611.955 957.136 640.533C957.136 657.137 954.743 673.603 949.954 689.932C945.167 706.263 937.985 721.914 928.409 736.882C919.085 751.579 907.368 765.324 893.256 778.117C879.145 790.637 862.765 801.523 844.118 810.777C825.471 820.031 804.556 827.379 781.373 832.822C758.44 837.994 733.241 840.579 705.775 840.579C663.994 840.579 625.217 835.427 589.445 825.122C582.765 823.197 577.055 830.657 581.091 836.318C589.954 848.75 599.512 861.058 609.766 873.24C624.885 890.932 641.643 906.717 660.039 920.599C678.686 934.478 698.845 945.774 720.516 954.483C742.439 962.921 766 967.14 791.199 967.14C799.515 967.14 808.461 966.051 818.037 963.874C827.865 961.697 837.818 958.702 847.897 954.891C858.23 950.809 868.435 945.909 878.515 940.194C886.532 935.759 894.246 930.996 901.656 925.906C905.121 923.526 909.901 924.433 912.142 927.99L953.563 993.721C955.581 996.924 954.805 1001.15 951.729 1003.35C940.3 1011.55 928.494 1018.94 916.314 1025.52C902.202 1033.14 887.964 1039.67 873.601 1045.12C859.489 1050.29 845.378 1054.23 831.266 1056.96C817.406 1059.95 804.051 1061.45 791.199 1061.45C759.953 1061.45 730.722 1056.82 703.507 1047.57C676.543 1038.58 651.596 1026.47 628.665 1011.23C605.734 995.989 584.819 978.571 565.92 958.974C547.019 939.378 529.885 919.102 514.512 898.144C499.394 876.915 486.037 855.822 474.445 834.864C462.854 813.907 453.027 794.583 444.962 776.891C444.85 776.649 444.726 776.366 444.589 776.043C443.371 773.17 444.333 769.856 446.763 767.899L530.617 700.344C533.161 698.294 536.755 698.207 539.451 700.053C584.053 730.593 639.495 745.863 705.775 745.863C732.738 745.863 756.299 742.87 776.459 736.882C796.869 730.895 814.005 723.002 827.865 713.203C841.725 703.133 852.056 691.839 858.859 679.319C865.916 666.526 869.443 653.598 869.443 640.533C869.443 627.47 865.916 614.813 858.859 602.565C852.056 590.046 842.102 578.751 828.998 568.68C822.698 564.053 814.887 559.29 805.564 554.391C796.491 549.492 785.53 545.001 772.678 540.919C760.078 536.836 745.463 533.57 728.832 531.12C712.453 528.399 693.804 527.038 672.889 527.038C615.939 527.038 566.801 544.321 525.474 578.887C484.148 613.181 450.381 664.892 424.174 734.024C415.858 755.798 408.928 777.436 403.384 798.938C397.841 820.439 393.305 840.579 389.777 859.36C386.501 878.139 383.981 895.014 382.217 909.983C380.453 924.68 379.193 936.247 378.437 944.685V1039.49C378.437 1043.5 375.187 1046.75 371.177 1046.75H291.2C287.191 1046.75 283.94 1043.5 283.94 1039.49V455.096C283.94 451.086 287.191 447.836 291.2 447.836H371.177ZM1563.64 918.238C1566.13 920.775 1566.43 924.752 1564.28 927.589C1547.14 950.248 1528.46 969.827 1508.24 986.327C1486.82 1003.75 1464.65 1018.04 1441.72 1029.19C1418.79 1040.35 1395.6 1048.52 1372.17 1053.69C1348.73 1058.86 1326.05 1061.45 1304.13 1061.45C1266.84 1061.45 1233.57 1056.28 1204.34 1045.93C1175.11 1035.59 1149.41 1022.39 1127.23 1006.33C1105.05 990.273 1086.16 972.583 1070.53 953.259C1054.91 933.935 1042.06 915.291 1031.98 897.328C1021.9 879.092 1014.21 862.897 1008.92 848.745C1005.05 838.396 1002.26 830.304 1000.55 824.467C999.602 821.249 996.729 818.894 993.376 818.831C982.84 818.633 975.421 818.534 971.122 818.534C969.783 818.462 968.569 818.39 967.479 818.317C963.909 818.08 961.358 815.079 961.444 811.502L963.525 724.514C963.546 723.673 964.233 723.002 965.074 723.002C966.082 723.002 967.595 723.138 969.611 723.41C971.879 723.41 974.902 723.546 978.682 723.818C980.69 723.818 984.448 723.818 987.716 723.818C991.236 723.818 994.252 721.298 994.906 717.839C997.466 704.312 1004.1 671.116 1010.81 652.78C1019.38 629.374 1030.59 607.057 1044.45 585.827C1058.56 564.598 1075.07 544.865 1093.97 526.63C1112.87 508.394 1133.78 492.472 1156.71 478.864C1179.64 465.255 1204.47 454.504 1231.18 446.611C1257.89 438.446 1286.11 433.955 1315.85 433.139C1319.12 433.139 1322.4 433.139 1325.67 433.139C1347.09 433.139 1368.26 435.724 1389.18 440.896C1410.09 445.795 1430.12 453.28 1449.28 463.35C1468.43 473.148 1485.69 484.851 1501.06 498.46C1516.68 511.796 1529.91 526.221 1540.75 541.735C1551.59 557.249 1559.9 573.443 1565.7 590.318C1571.74 606.92 1574.77 623.251 1574.77 639.309C1574.77 665.71 1570.86 688.436 1563.05 707.487C1555.24 726.268 1545.03 742.054 1532.43 754.846C1520.09 767.637 1506.1 777.844 1490.48 785.465C1474.85 793.085 1459.1 799.073 1443.23 803.428C1427.61 807.511 1412.74 810.232 1398.63 811.593C1384.52 812.954 1372.67 813.907 1363.1 814.451L1353.27 814.859C1337.9 815.404 1320.13 816.085 1299.97 816.901C1280.06 817.444 1259.02 818.125 1236.85 818.943C1214.67 819.486 1194.89 819.894 1177.5 820.167C1160.37 820.167 1146.26 820.167 1135.17 820.167C1127.63 820.167 1120.14 820.167 1112.71 820.167C1107.66 820.167 1104.16 825.206 1106.16 829.849C1113.91 847.828 1124.21 864.332 1137.06 879.363C1152.43 897.055 1169.69 912.296 1188.84 925.088C1208.25 937.608 1228.78 947.271 1250.45 954.075C1272.13 960.879 1293.55 964.282 1314.71 964.282C1331.09 964.282 1347.47 962.24 1363.85 958.158C1380.48 954.075 1396.86 947.816 1412.99 939.378C1429.12 930.669 1444.74 919.51 1459.86 905.901C1473.1 893.744 1485.76 879.603 1497.85 863.48C1500.55 859.87 1505.85 859.45 1509.01 862.667L1563.64 918.238ZM1448.9 582.969C1430.75 563.917 1410.72 550.036 1388.8 541.327C1367.13 532.617 1344.45 528.263 1320.76 528.263C1295.31 528.263 1269.98 533.026 1244.79 542.552C1219.84 552.078 1196.91 565.55 1175.99 582.969C1155.33 600.115 1137.56 620.801 1122.7 645.025C1109.47 666.702 1100.16 690.607 1094.78 716.742C1093.88 721.095 1097.21 725.119 1101.66 725.187C1113.21 725.363 1124.75 725.45 1136.3 725.45C1143.61 725.45 1154.45 725.45 1168.81 725.45C1183.43 725.179 1201.06 724.907 1221.73 724.634C1242.64 724.091 1262.42 723.546 1281.07 723.002C1299.72 722.184 1316.6 721.233 1331.72 720.144L1337.39 719.736C1362.84 717.83 1384.26 714.972 1401.65 711.163C1419.04 707.352 1433.02 702.317 1443.61 696.056C1454.19 689.524 1461.75 681.631 1466.29 672.377C1471.07 662.852 1473.47 651.829 1473.47 639.309C1473.47 619.169 1465.28 600.388 1448.9 582.969Z" fill="url(#paint1_linear_420_16)"/>
<path d="M596.371 1273.53C605.433 1272.49 613.882 1271.79 621.717 1271.41C629.647 1270.94 637.152 1270.7 644.232 1270.7C662.64 1270.7 677.98 1272.12 690.253 1274.95C702.525 1277.78 712.342 1281.6 719.706 1286.42C727.163 1291.14 732.45 1296.61 735.565 1302.84C738.68 1309.07 740.285 1315.54 740.38 1322.24C740.38 1322.62 740.38 1322.95 740.38 1323.23C740.38 1329.65 739.483 1336.07 737.689 1342.49C735.895 1348.91 732.733 1355 728.202 1360.76C723.671 1366.52 717.534 1371.85 709.794 1376.76C702.147 1381.57 692.471 1385.73 680.765 1389.22C669.154 1392.71 655.324 1395.45 639.276 1397.43C623.228 1399.32 604.584 1400.27 583.343 1400.27C567.673 1400.27 552.663 1399.42 538.314 1397.72C524.06 1395.92 510.749 1393.7 498.382 1391.06C486.016 1388.42 474.735 1385.54 464.54 1382.42C454.439 1379.31 445.707 1376.38 438.343 1373.64C431.075 1370.91 425.316 1368.59 421.068 1366.71C416.914 1364.72 414.554 1363.59 413.988 1363.31L429.847 1331.45C429.942 1331.45 431.783 1332.3 435.37 1334C439.051 1335.6 444.196 1337.58 450.804 1339.94C457.412 1342.3 465.342 1344.9 474.593 1347.73C483.845 1350.47 494.134 1353.02 505.463 1355.38C516.791 1357.74 528.968 1359.72 541.996 1361.33C555.117 1362.93 568.806 1363.73 583.06 1363.73C602.696 1363.73 619.405 1363.07 633.187 1361.75C646.97 1360.33 658.392 1358.49 667.455 1356.23C676.517 1353.96 683.503 1351.37 688.412 1348.44C693.415 1345.51 696.813 1342.59 698.607 1339.66C700.401 1336.73 701.297 1334 701.297 1331.45C701.297 1330.69 701.109 1329.32 700.731 1327.34C700.448 1325.36 699.362 1322.9 697.474 1319.98C695.869 1317.43 693.509 1315.3 690.394 1313.61C687.279 1311.81 683.55 1310.44 679.208 1309.5C674.96 1308.46 670.145 1307.75 664.764 1307.38C659.383 1306.9 653.578 1306.67 647.347 1306.67C638.096 1306.67 628.089 1307.04 617.328 1307.8C606.66 1308.46 595.616 1309.22 584.193 1310.07C572.77 1310.92 561.206 1311.72 549.501 1312.47C537.795 1313.13 526.372 1313.46 515.233 1313.46C506.076 1313.46 497.202 1313.13 488.612 1312.47C480.116 1311.81 472.139 1310.68 464.681 1309.07C457.224 1307.47 450.427 1305.3 444.291 1302.56C438.155 1299.82 432.868 1296.38 428.431 1292.22C423.994 1288.07 420.549 1283.11 418.094 1277.36C415.734 1271.6 414.554 1264.89 414.554 1257.25C414.554 1251.77 415.404 1246.3 417.103 1240.82C418.802 1235.35 421.776 1230.11 426.024 1225.1C430.366 1220.01 436.219 1215.29 443.583 1210.94C451.04 1206.51 460.48 1202.59 471.903 1199.19C483.42 1195.79 497.155 1193.06 513.109 1190.98C529.157 1188.9 547.896 1187.63 569.325 1187.16C571.874 1187.16 574.375 1187.16 576.83 1187.16C589.857 1187.16 602.932 1187.82 616.053 1189.14C629.269 1190.46 642.108 1192.3 654.569 1194.66C667.124 1197.02 678.5 1199.66 688.695 1202.59C698.985 1205.52 707.858 1208.25 715.316 1210.8C722.774 1213.35 728.627 1215.57 732.875 1217.46C737.217 1219.25 739.624 1220.29 740.096 1220.57L725.087 1252.15C724.992 1252.06 723.151 1251.21 719.564 1249.6C716.071 1247.9 711.115 1245.83 704.696 1243.37C698.371 1240.92 690.677 1238.32 681.615 1235.58C672.552 1232.75 662.451 1230.2 651.312 1227.94C640.267 1225.58 628.797 1223.74 616.903 1222.41C605.008 1221.09 593.208 1220.43 581.503 1220.43C579.143 1220.43 576.783 1220.48 574.422 1220.57C556.014 1220.95 540.108 1221.8 526.703 1223.12C513.298 1224.35 501.97 1225.95 492.718 1227.94C483.467 1229.92 476.057 1232.18 470.487 1234.73C464.917 1237.28 460.764 1240.02 458.026 1242.95C455.288 1245.78 453.825 1248.14 453.636 1250.03C453.448 1251.91 453.353 1253.19 453.353 1253.85C453.353 1256.3 453.825 1258.81 454.769 1261.35C456.091 1264.75 458.498 1267.58 461.991 1269.85C465.484 1272.12 469.779 1273.96 474.877 1275.37C480.069 1276.79 486.016 1277.83 492.718 1278.49C499.515 1279.05 506.831 1279.34 514.667 1279.34C526.656 1279.34 539.589 1278.77 553.465 1277.64C567.342 1276.51 581.644 1275.14 596.371 1273.53ZM922.859 1190.41V1398H883.918V1310.35H840.163V1398H801.223V1190.41H840.163V1277.64H883.918V1190.41H922.859ZM1079.85 1189.28C1087.5 1189.28 1095.14 1190.32 1102.79 1192.39C1110.44 1194.47 1117.75 1197.54 1124.74 1201.6C1131.82 1205.66 1138.38 1210.71 1144.42 1216.75C1150.46 1222.7 1155.7 1229.54 1160.14 1237.28C1164.57 1245.02 1168.07 1253.71 1170.62 1263.34C1173.16 1272.87 1174.44 1283.21 1174.44 1294.35C1174.44 1305.68 1173.16 1316.15 1170.62 1325.78C1168.07 1335.41 1164.57 1344.1 1160.14 1351.84C1155.7 1359.58 1150.46 1366.42 1144.42 1372.37C1138.38 1378.32 1131.82 1383.27 1124.74 1387.24C1117.75 1391.2 1110.44 1394.22 1102.79 1396.3C1095.14 1398.28 1087.5 1399.27 1079.85 1399.27C1072.2 1399.27 1064.51 1398.28 1056.77 1396.3C1049.12 1394.22 1041.76 1391.2 1034.68 1387.24C1027.69 1383.27 1021.18 1378.32 1015.14 1372.37C1009.1 1366.42 1003.86 1359.58 999.42 1351.84C994.983 1344.1 991.49 1335.41 988.941 1325.78C986.392 1316.15 985.118 1305.68 985.118 1294.35C985.118 1283.11 986.392 1272.73 988.941 1263.2C991.49 1253.66 994.983 1245.02 999.42 1237.28C1003.86 1229.54 1009.1 1222.7 1015.14 1216.75C1021.18 1210.71 1027.69 1205.66 1034.68 1201.6C1041.76 1197.54 1049.12 1194.47 1056.77 1192.39C1064.51 1190.32 1072.2 1189.28 1079.85 1189.28ZM1079.85 1370.1C1087.31 1370.01 1094.39 1368.36 1101.09 1365.15C1107.79 1361.84 1113.64 1357.03 1118.65 1350.71C1123.75 1344.29 1127.76 1336.4 1130.68 1327.06C1133.71 1317.62 1135.22 1306.71 1135.22 1294.35C1135.22 1281.89 1133.71 1270.98 1130.68 1261.64C1127.76 1252.2 1123.75 1244.32 1118.65 1237.99C1113.64 1231.67 1107.79 1226.9 1101.09 1223.69C1094.39 1220.38 1087.31 1218.69 1079.85 1218.59C1072.39 1218.69 1065.26 1220.38 1058.47 1223.69C1051.77 1226.9 1045.87 1231.67 1040.77 1237.99C1035.67 1244.32 1031.61 1252.2 1028.59 1261.64C1025.57 1270.98 1024.06 1281.89 1024.06 1294.35C1024.06 1306.71 1025.57 1317.62 1028.59 1327.06C1031.61 1336.4 1035.67 1344.29 1040.77 1350.71C1045.87 1357.03 1051.77 1361.84 1058.47 1365.15C1065.26 1368.36 1072.39 1370.01 1079.85 1370.1ZM1422.9 1307.38C1414.79 1314.74 1405.11 1320.31 1393.88 1324.08C1382.74 1327.77 1370.42 1329.61 1356.92 1329.61C1346.44 1329.61 1336.86 1328.71 1328.17 1326.92C1319.49 1325.03 1311.61 1322.48 1304.53 1319.27C1297.45 1316.06 1291.12 1312.38 1285.55 1308.22C1279.98 1303.98 1275.03 1299.54 1270.68 1294.91V1398H1232.03V1190.27H1270.68V1218.45C1270.97 1220.15 1271.34 1222.41 1271.82 1225.25C1272.38 1228.08 1273.14 1231.24 1274.08 1234.73C1275.12 1238.13 1276.39 1241.81 1277.9 1245.78C1279.51 1249.65 1281.44 1253.57 1283.71 1257.53C1298.72 1283.77 1323.12 1296.9 1356.92 1296.9C1366.36 1296.9 1374.81 1295.72 1382.27 1293.36C1389.72 1291 1396 1287.55 1401.1 1283.02C1405.16 1279.43 1408.23 1275.33 1410.3 1270.7C1412.47 1265.98 1413.56 1261.02 1413.56 1255.83C1413.56 1251.21 1412.62 1246.63 1410.73 1242.1C1408.93 1237.57 1406.1 1233.51 1402.23 1229.92C1398.45 1226.24 1393.59 1223.31 1387.65 1221.14C1381.79 1218.87 1374.85 1217.74 1366.83 1217.74C1353.33 1217.74 1341.48 1220.34 1331.29 1225.53C1321.09 1230.63 1312.22 1238.51 1304.67 1249.18L1277.9 1230.2C1288.48 1215.29 1301.27 1204.05 1316.28 1196.5C1331.29 1188.85 1348.14 1185.03 1366.83 1185.03C1378.63 1185.03 1389.44 1186.82 1399.26 1190.41C1409.17 1194 1417.81 1199.33 1425.17 1206.41C1431.97 1213.02 1437.16 1220.57 1440.75 1229.07C1444.43 1237.47 1446.27 1246.39 1446.27 1255.83C1446.27 1265.84 1444.29 1275.23 1440.32 1284.01C1436.36 1292.79 1430.55 1300.58 1422.9 1307.38Z" fill="white"/>
<path d="M596.371 1273.53C605.433 1272.49 613.882 1271.79 621.717 1271.41C629.647 1270.94 637.152 1270.7 644.232 1270.7C662.64 1270.7 677.98 1272.12 690.253 1274.95C702.525 1277.78 712.342 1281.6 719.706 1286.42C727.163 1291.14 732.45 1296.61 735.565 1302.84C738.68 1309.07 740.285 1315.54 740.38 1322.24C740.38 1322.62 740.38 1322.95 740.38 1323.23C740.38 1329.65 739.483 1336.07 737.689 1342.49C735.895 1348.91 732.733 1355 728.202 1360.76C723.671 1366.52 717.534 1371.85 709.794 1376.76C702.147 1381.57 692.471 1385.73 680.765 1389.22C669.154 1392.71 655.324 1395.45 639.276 1397.43C623.228 1399.32 604.584 1400.27 583.343 1400.27C567.673 1400.27 552.663 1399.42 538.314 1397.72C524.06 1395.92 510.749 1393.7 498.382 1391.06C486.016 1388.42 474.735 1385.54 464.54 1382.42C454.439 1379.31 445.707 1376.38 438.343 1373.64C431.075 1370.91 425.316 1368.59 421.068 1366.71C416.914 1364.72 414.554 1363.59 413.988 1363.31L429.847 1331.45C429.942 1331.45 431.783 1332.3 435.37 1334C439.051 1335.6 444.196 1337.58 450.804 1339.94C457.412 1342.3 465.342 1344.9 474.593 1347.73C483.845 1350.47 494.134 1353.02 505.463 1355.38C516.791 1357.74 528.968 1359.72 541.996 1361.33C555.117 1362.93 568.806 1363.73 583.06 1363.73C602.696 1363.73 619.405 1363.07 633.187 1361.75C646.97 1360.33 658.392 1358.49 667.455 1356.23C676.517 1353.96 683.503 1351.37 688.412 1348.44C693.415 1345.51 696.813 1342.59 698.607 1339.66C700.401 1336.73 701.297 1334 701.297 1331.45C701.297 1330.69 701.109 1329.32 700.731 1327.34C700.448 1325.36 699.362 1322.9 697.474 1319.98C695.869 1317.43 693.509 1315.3 690.394 1313.61C687.279 1311.81 683.55 1310.44 679.208 1309.5C674.96 1308.46 670.145 1307.75 664.764 1307.38C659.383 1306.9 653.578 1306.67 647.347 1306.67C638.096 1306.67 628.089 1307.04 617.328 1307.8C606.66 1308.46 595.616 1309.22 584.193 1310.07C572.77 1310.92 561.206 1311.72 549.501 1312.47C537.795 1313.13 526.372 1313.46 515.233 1313.46C506.076 1313.46 497.202 1313.13 488.612 1312.47C480.116 1311.81 472.139 1310.68 464.681 1309.07C457.224 1307.47 450.427 1305.3 444.291 1302.56C438.155 1299.82 432.868 1296.38 428.431 1292.22C423.994 1288.07 420.549 1283.11 418.094 1277.36C415.734 1271.6 414.554 1264.89 414.554 1257.25C414.554 1251.77 415.404 1246.3 417.103 1240.82C418.802 1235.35 421.776 1230.11 426.024 1225.1C430.366 1220.01 436.219 1215.29 443.583 1210.94C451.04 1206.51 460.48 1202.59 471.903 1199.19C483.42 1195.79 497.155 1193.06 513.109 1190.98C529.157 1188.9 547.896 1187.63 569.325 1187.16C571.874 1187.16 574.375 1187.16 576.83 1187.16C589.857 1187.16 602.932 1187.82 616.053 1189.14C629.269 1190.46 642.108 1192.3 654.569 1194.66C667.124 1197.02 678.5 1199.66 688.695 1202.59C698.985 1205.52 707.858 1208.25 715.316 1210.8C722.774 1213.35 728.627 1215.57 732.875 1217.46C737.217 1219.25 739.624 1220.29 740.096 1220.57L725.087 1252.15C724.992 1252.06 723.151 1251.21 719.564 1249.6C716.071 1247.9 711.115 1245.83 704.696 1243.37C698.371 1240.92 690.677 1238.32 681.615 1235.58C672.552 1232.75 662.451 1230.2 651.312 1227.94C640.267 1225.58 628.797 1223.74 616.903 1222.41C605.008 1221.09 593.208 1220.43 581.503 1220.43C579.143 1220.43 576.783 1220.48 574.422 1220.57C556.014 1220.95 540.108 1221.8 526.703 1223.12C513.298 1224.35 501.97 1225.95 492.718 1227.94C483.467 1229.92 476.057 1232.18 470.487 1234.73C464.917 1237.28 460.764 1240.02 458.026 1242.95C455.288 1245.78 453.825 1248.14 453.636 1250.03C453.448 1251.91 453.353 1253.19 453.353 1253.85C453.353 1256.3 453.825 1258.81 454.769 1261.35C456.091 1264.75 458.498 1267.58 461.991 1269.85C465.484 1272.12 469.779 1273.96 474.877 1275.37C480.069 1276.79 486.016 1277.83 492.718 1278.49C499.515 1279.05 506.831 1279.34 514.667 1279.34C526.656 1279.34 539.589 1278.77 553.465 1277.64C567.342 1276.51 581.644 1275.14 596.371 1273.53ZM922.859 1190.41V1398H883.918V1310.35H840.163V1398H801.223V1190.41H840.163V1277.64H883.918V1190.41H922.859ZM1079.85 1189.28C1087.5 1189.28 1095.14 1190.32 1102.79 1192.39C1110.44 1194.47 1117.75 1197.54 1124.74 1201.6C1131.82 1205.66 1138.38 1210.71 1144.42 1216.75C1150.46 1222.7 1155.7 1229.54 1160.14 1237.28C1164.57 1245.02 1168.07 1253.71 1170.62 1263.34C1173.16 1272.87 1174.44 1283.21 1174.44 1294.35C1174.44 1305.68 1173.16 1316.15 1170.62 1325.78C1168.07 1335.41 1164.57 1344.1 1160.14 1351.84C1155.7 1359.58 1150.46 1366.42 1144.42 1372.37C1138.38 1378.32 1131.82 1383.27 1124.74 1387.24C1117.75 1391.2 1110.44 1394.22 1102.79 1396.3C1095.14 1398.28 1087.5 1399.27 1079.85 1399.27C1072.2 1399.27 1064.51 1398.28 1056.77 1396.3C1049.12 1394.22 1041.76 1391.2 1034.68 1387.24C1027.69 1383.27 1021.18 1378.32 1015.14 1372.37C1009.1 1366.42 1003.86 1359.58 999.42 1351.84C994.983 1344.1 991.49 1335.41 988.941 1325.78C986.392 1316.15 985.118 1305.68 985.118 1294.35C985.118 1283.11 986.392 1272.73 988.941 1263.2C991.49 1253.66 994.983 1245.02 999.42 1237.28C1003.86 1229.54 1009.1 1222.7 1015.14 1216.75C1021.18 1210.71 1027.69 1205.66 1034.68 1201.6C1041.76 1197.54 1049.12 1194.47 1056.77 1192.39C1064.51 1190.32 1072.2 1189.28 1079.85 1189.28ZM1079.85 1370.1C1087.31 1370.01 1094.39 1368.36 1101.09 1365.15C1107.79 1361.84 1113.64 1357.03 1118.65 1350.71C1123.75 1344.29 1127.76 1336.4 1130.68 1327.06C1133.71 1317.62 1135.22 1306.71 1135.22 1294.35C1135.22 1281.89 1133.71 1270.98 1130.68 1261.64C1127.76 1252.2 1123.75 1244.32 1118.65 1237.99C1113.64 1231.67 1107.79 1226.9 1101.09 1223.69C1094.39 1220.38 1087.31 1218.69 1079.85 1218.59C1072.39 1218.69 1065.26 1220.38 1058.47 1223.69C1051.77 1226.9 1045.87 1231.67 1040.77 1237.99C1035.67 1244.32 1031.61 1252.2 1028.59 1261.64C1025.57 1270.98 1024.06 1281.89 1024.06 1294.35C1024.06 1306.71 1025.57 1317.62 1028.59 1327.06C1031.61 1336.4 1035.67 1344.29 1040.77 1350.71C1045.87 1357.03 1051.77 1361.84 1058.47 1365.15C1065.26 1368.36 1072.39 1370.01 1079.85 1370.1ZM1422.9 1307.38C1414.79 1314.74 1405.11 1320.31 1393.88 1324.08C1382.74 1327.77 1370.42 1329.61 1356.92 1329.61C1346.44 1329.61 1336.86 1328.71 1328.17 1326.92C1319.49 1325.03 1311.61 1322.48 1304.53 1319.27C1297.45 1316.06 1291.12 1312.38 1285.55 1308.22C1279.98 1303.98 1275.03 1299.54 1270.68 1294.91V1398H1232.03V1190.27H1270.68V1218.45C1270.97 1220.15 1271.34 1222.41 1271.82 1225.25C1272.38 1228.08 1273.14 1231.24 1274.08 1234.73C1275.12 1238.13 1276.39 1241.81 1277.9 1245.78C1279.51 1249.65 1281.44 1253.57 1283.71 1257.53C1298.72 1283.77 1323.12 1296.9 1356.92 1296.9C1366.36 1296.9 1374.81 1295.72 1382.27 1293.36C1389.72 1291 1396 1287.55 1401.1 1283.02C1405.16 1279.43 1408.23 1275.33 1410.3 1270.7C1412.47 1265.98 1413.56 1261.02 1413.56 1255.83C1413.56 1251.21 1412.62 1246.63 1410.73 1242.1C1408.93 1237.57 1406.1 1233.51 1402.23 1229.92C1398.45 1226.24 1393.59 1223.31 1387.65 1221.14C1381.79 1218.87 1374.85 1217.74 1366.83 1217.74C1353.33 1217.74 1341.48 1220.34 1331.29 1225.53C1321.09 1230.63 1312.22 1238.51 1304.67 1249.18L1277.9 1230.2C1288.48 1215.29 1301.27 1204.05 1316.28 1196.5C1331.29 1188.85 1348.14 1185.03 1366.83 1185.03C1378.63 1185.03 1389.44 1186.82 1399.26 1190.41C1409.17 1194 1417.81 1199.33 1425.17 1206.41C1431.97 1213.02 1437.16 1220.57 1440.75 1229.07C1444.43 1237.47 1446.27 1246.39 1446.27 1255.83C1446.27 1265.84 1444.29 1275.23 1440.32 1284.01C1436.36 1292.79 1430.55 1300.58 1422.9 1307.38Z" fill="url(#paint2_linear_420_16)"/>
<rect x="289" y="1098" width="1281" height="400" rx="42" stroke="black" stroke-width="10"/>
<defs>
<linearGradient id="paint0_linear_420_16" x1="1859" y1="1859" x2="0" y2="0" gradientUnits="userSpaceOnUse">
<stop stop-color="#E9FAFF"/>
<stop offset="1" stop-color="#625AFF"/>
</linearGradient>
<linearGradient id="paint1_linear_420_16" x1="929.794" y1="432.73" x2="929.794" y2="1061.45" gradientUnits="userSpaceOnUse">
<stop/>
<stop offset="1" stop-color="#3B2C52"/>
</linearGradient>
<linearGradient id="paint2_linear_420_16" x1="928.967" y1="1105" x2="928.967" y2="1540" gradientUnits="userSpaceOnUse">
<stop/>
<stop offset="1" stop-color="#3B2C52"/>
</linearGradient>
</defs>
</svg>
